<svg xmlns="http://www.w3.org/2000/svg" version="1.1" xmlns:xlink="http://www.w3.org/1999/xlink" xmlns:svgjs="http://svgjs.dev/svgjs" viewBox="0 0 600 600"><path d="M36.518322040894645 355.7591828351248C34.293191323935005 435.99478521397003 93.97905259356799 531.020952447755 139.39790158496203 565.4450348859061C184.81675057635607 599.8691173240569 248.03664975390734 562.303677464031 309.0314159892589 562.303677464031C370.02618222461047 562.303677464031 459.5549806458344 608.3769730572927 505.3664989970714 565.4450348859061C551.1780173483083 522.5130967145194 585.7329896790376 378.0104779248465 583.9005260966808 304.71204843571076C582.068062514324 231.413618946575 566.2303575379243 162.4345625882376 494.3717175029308 125.65445795109162C422.5130774679373 88.87435331394562 229.0575851303925 45.680633132162576 152.74868588671984 84.03142061283478C76.43978664304716 122.38220809350699 38.743452757854286 275.5235804562796 36.518322040894645 355.7591828351248C34.293191323935005 435.99478521397003 93.97905259356799 531.020952447755 139.39790158496203 565.4450348859061 " fill="#2563eb" transform="matrix(1,0,0,1,2.3514461517333984,41.135772705078125)"></path><path d="M-92.27748273678105 270.94240421274856C-94.5026134537407 351.17800659159343 -34.81675218410771 446.20417382537835 10.60209680728633 480.62825626352947C56.02094579868037 515.0523387016805 119.24084497623164 477.48689884165447 180.2356112115832 477.48689884165447C241.23037744693477 477.48689884165447 330.7591758681587 523.5601944349162 376.5706942193957 480.62825626352947C422.38221257063265 437.69631809214275 456.9371849013619 293.19369930247035 455.1047213190051 219.895269813332C453.27225773664827 146.59684032419602 437.4345527602486 77.61778396585862 365.5759127252551 40.837679328712625C293.7172726902616 4.057574691566629 100.26178035271681 -39.13614549021642 23.952881109044142 -0.7853580095442112C-52.35601813462854 37.565429471128 -90.05235201982141 190.7068018339006 -92.27748273678105 270.94240421274856C-94.5026134537407 351.17800659159343 -34.81675218410771 446.20417382537835 10.60209680728633 480.62825626352947 " fill-opacity="0.38" fill="#38bdf8" opacity="1" stroke-opacity="1" stroke-width="0" stroke="hsl(340, 45%, 30%)" transform="matrix(1.0000000000000007,-1.6653345369377348e-16,1.6653345369377348e-16,1.0000000000000007,109.94303894042957,98.46557998657238)"></path></svg>